<svg version="1.1" id="Layer_1" xmlns="http://www.w3.org/2000/svg" xmlns:xlink="http://www.w3.org/1999/xlink" x="0px" y="0px"
	 width="100%" viewBox="0 0 1024 1024" enable-background="new 0 0 1024 1024" xml:space="preserve">
<path fill="#000000" opacity="1.000000" stroke="none" 
	d="
M325.904419,674.983276 
	C304.396362,688.990540 283.348328,703.049133 261.934814,716.526978 
	C235.556015,733.129883 207.298172,744.582336 175.836227,747.565247 
	C163.796951,748.706665 152.051544,750.337097 140.498474,745.425171 
	C132.009735,741.816040 130.756851,739.320679 132.754013,730.374695 
	C134.867004,720.909790 140.957489,713.740112 146.446289,706.239014 
	C152.349579,698.171448 158.970703,690.809509 166.239380,683.831055 
	C201.761917,649.726746 241.018433,620.113892 279.035858,589.005798 
	C297.606384,573.810303 317.516998,560.365601 335.983063,545.031006 
	C340.181122,541.544922 341.923584,537.931519 341.925140,532.315857 
	C341.935028,496.337982 355.723877,465.853760 379.175171,439.012115 
	C396.896484,418.728851 418.785217,405.352051 444.485413,398.722839 
	C471.046722,391.871460 497.872955,392.332825 524.181885,400.804688 
	C530.316956,402.780304 536.083130,405.970856 541.892578,408.857025 
	C544.578979,410.191650 546.725464,410.014740 549.363342,408.646301 
	C578.330811,393.619385 607.300049,378.593567 636.394287,363.814484 
	C656.886597,353.404938 678.150696,344.659241 699.145142,335.329712 
	C731.580994,320.915924 764.636780,308.146851 798.123901,296.401642 
	C826.931580,286.297699 856.233459,278.275024 886.368896,273.342926 
	C890.888550,272.603180 895.359192,272.807434 899.709412,274.210419 
	C906.086487,276.267059 908.183350,281.174713 905.109558,287.177979 
	C902.969849,291.357086 899.871277,294.906494 896.472168,298.115509 
	C876.487244,316.983307 855.773987,335.049530 833.996521,351.789673 
	C807.325317,372.291626 779.979675,391.886963 752.173340,410.857208 
	C718.983704,433.500153 684.741272,454.384064 649.866333,474.280853 
	C642.210571,478.648621 635.190186,484.091278 626.982605,487.556946 
	C625.261902,488.283539 624.036194,490.177307 622.575256,491.525543 
	C620.228088,493.691559 618.339844,493.295776 617.271729,490.322510 
	C614.516113,482.651733 611.826660,474.956177 609.209839,467.236908 
	C607.995911,463.656006 609.165649,460.767517 612.803955,459.660614 
	C631.202698,454.063293 646.833191,443.060852 663.468750,434.011841 
	C678.416809,425.880768 691.892578,415.460449 706.517700,406.787689 
	C737.464233,388.436218 767.227356,368.184784 797.276123,348.414459 
	C807.831665,341.469543 816.820068,332.339325 825.864319,323.474854 
	C830.441223,318.988953 835.902100,315.387787 840.178467,309.860748 
	C836.396118,308.747437 833.784363,310.445984 831.205322,311.694366 
	C820.868530,316.697876 810.805481,322.235321 800.211609,326.747894 
	C788.833313,331.594543 776.502441,333.655731 765.280029,338.718109 
	C743.138306,348.706116 721.302979,359.371552 699.209717,369.469604 
	C663.151245,385.950775 627.669800,403.566772 592.871826,422.565765 
	C589.223083,424.557892 585.379028,426.191162 581.635498,428.011230 
	C578.048157,429.755402 576.852783,431.638092 580.379883,434.992920 
	C604.899170,458.314911 616.082825,488.057526 619.937988,520.741211 
	C624.204102,556.908813 613.707153,589.080078 591.160095,617.564697 
	C574.009583,639.231689 552.100098,654.337219 526.399292,663.539001 
	C505.646454,670.969238 483.926147,673.079712 461.932220,669.999695 
	C434.454254,666.151794 410.448517,654.676880 389.519989,636.590027 
	C377.627014,626.311951 370.135498,612.539490 360.773041,600.255859 
	C356.378387,594.490112 353.878296,587.774414 351.578522,580.955322 
	C349.799500,575.679993 348.402985,575.251709 344.203979,578.510071 
	C312.103638,603.419922 279.759857,628.012512 249.855408,655.636047 
	C230.757324,673.277466 209.479309,688.321228 189.459824,704.874268 
	C184.715942,708.796814 180.182602,712.975342 175.585800,717.073547 
	C173.963531,718.519836 172.739059,720.239685 172.309814,722.375671 
	C174.373199,724.211792 176.047714,722.823486 177.592743,722.218933 
	C194.854095,715.464539 211.317673,707.073669 226.981674,697.203979 
	C269.257019,670.567078 310.881165,643.002625 348.575867,609.971924 
	C348.701172,609.862122 348.829987,609.756226 348.958679,609.650391 
	C357.415222,602.695679 357.843353,602.760864 364.186096,611.295410 
	C367.863007,616.242981 371.576355,621.158020 374.603699,626.549927 
	C378.594513,633.657837 378.132355,636.442261 371.814514,641.514526 
	C357.126068,653.307068 341.559845,663.899841 325.904419,674.983276 
M401.160858,592.332520 
	C402.005554,593.362732 402.866669,594.379944 403.692627,595.424988 
	C427.082550,625.017395 457.523651,636.918335 494.762024,631.641907 
	C511.442749,629.278381 527.233826,624.475586 540.997192,614.284424 
	C576.395081,588.073792 592.413635,535.784485 573.312073,492.882721 
	C566.684387,477.996918 558.335266,464.680450 544.666321,455.267639 
	C537.258301,450.166229 536.884338,450.195587 529.144592,455.036835 
	C511.221832,466.247772 493.186676,477.280121 475.319519,488.578522 
	C446.052795,507.085480 416.296265,524.834778 388.122406,545.042175 
	C383.816040,548.130859 382.741394,551.361267 383.876984,556.496948 
	C386.778839,569.620178 392.592255,581.216736 401.160858,592.332520 
M462.255341,433.767883 
	C448.730652,435.714355 436.998810,441.835663 425.903595,449.416504 
	C407.219086,462.182739 393.276031,478.682220 385.957581,500.359100 
	C385.167877,502.698120 384.598206,505.099213 386.251617,507.338104 
	C388.379669,506.711670 496.756195,437.352142 497.455200,436.205322 
	C496.108398,433.889923 493.600159,433.865448 491.415070,433.338898 
	C481.970367,431.062988 472.538055,432.688904 462.255341,433.767883 
z"/>
</svg>